# AST/ASF file generated using VICON BodyLanguage
# -----------------------------------------------
:version 1.10
:name VICON
:units
  mass 1.0
  length 0.45
  angle deg
:documentation
   .ast/.asf automatically generated from VICON data using
   VICON BodyBuilder and BodyLanguage model FoxedUp or BRILLIANT.MOD
:root
   order TX TY TZ RX RY RZ
   axis XYZ
   position 0 0 0  
   orientation 0 0 0 
:bonedata
  begin
     id 1 
     name lhipjoint
     direction 0.606768 -0.715223 0.346827 
     length 2.41543 
     axis 0 0 0  XYZ
  end
  begin
     id 2 
     name lfemur
     direction 0.34202 -0.939693 0  
     length 7.2778  
     axis 0 0 20  XYZ
    dof rx ry rz
    limits (-160.0 20.0)
           (-70.0 70.0)
           (-60.0 70.0)
  end
  begin
     id 3 
     name ltibia
     direction 0.34202 -0.939693 0   
     length 7.61811   
     axis 0 0 20   XYZ
    dof rx
    limits (-10.0 170.0)
  end
  begin
     id 4 
     name lfoot
     direction 0.0823924 -0.226371 0.97055   
     length 2.33618   
     axis -90 7.62852e-016 20   XYZ
    dof rx rz
    limits (-45.0 90.0)
           (-70.0 20.0)
  end
  begin
     id 5 
     name ltoes
     direction 1.53554e-011 -4.21934e-011 1   
     length 1.17015   
     axis -90 7.62852e-016 20   XYZ
    dof rx
    limits (-90.0 20.0)
  end
  begin
     id 6 
     name rhipjoint
     direction -0.6077 -0.714582 0.346516   
     length 2.4176  
     axis 0 0 0  XYZ 
  end
  begin
     id 7 
     name rfemur
     direction -0.34202 -0.939693 0   
     length 7.28127   
     axis 0 0 -20   XYZ
    dof rx ry rz
    limits (-160.0 20.0)
           (-70.0 70.0)
           (-70.0 60.0)
  end
  begin
     id 8 
     name rtibia
     direction -0.34202 -0.939693 0   
     length 7.77648   
     axis 0 0 -20   XYZ
    dof rx
    limits (-10.0 170.0)
 end
 begin
     id 9 
     name rfoot
     direction -0.0809463 -0.222398 0.97159   
     length 2.37533  
     axis -90 -7.62852e-016 -20   XYZ
    dof rx rz
    limits (-45.0 90.0)
           (-20.0 70.0)
  end
  begin
     id 10 
     name rtoes
     direction -1.53568e-011 -4.21714e-011 1   
     length 1.18972   
     axis -90 -7.62852e-016 -20   XYZ
    dof rx
    limits (-90.0 20.0)
  end
  begin
     id 11 
     name lowerback
     direction 0.010968 0.991932 -0.126297   
     length 2.21698   
     axis 0 0 0   XYZ
    dof rx ry rz
    limits (-20.0 45.0)
           (-30.0 30.0)
           (-30.0 30.0)
  end
  begin
     id 12 
     name upperback
     direction 0.0167007 0.997503 -0.0686276   
     length 2.22371   
     axis 0 0 0   XYZ
    dof rx ry rz
    limits (-20.0 45.0)
           (-30.0 30.0)
           (-30.0 30.0)
  end
  begin
     id 13 
     name thorax
     direction 0.0111721 0.999885 -0.0102878   
     length 2.25242   
     axis 0 0 0   XYZ
    dof rx ry rz
    limits (-20.0 45.0)
           (-30.0 30.0)
           (-30.0 30.0)
  end
  begin
     id 14 
     name lowerneck
     direction -0.0120265 0.990428 0.137508   
     length 1.57674   
     axis 0 0 0   XYZ
    dof rx ry rz
    limits (-20.0 45.0)
           (-30.0 30.0)
           (-30.0 30.0)
  end
  begin
     id 15 
     name upperneck
     direction 0.0175669 0.998907 0.0433089   
     length 1.5618   
     axis 0 0 0   XYZ
    dof rx ry rz
    limits (-20.0 45.0)
           (-30.0 30.0)
           (-30.0 30.0)
  end
  begin
     id 16
     name head
     direction 0.00754609 0.99997 0.00185367  
     length 1.60579  
     axis 0 0 0   XYZ
    dof rx ry rz
    limits (-20.0 45.0)
           (-30.0 30.0)
           (-30.0 30.0)
  end
  begin
     id 17 
     name lclavicle
     direction 0.885866 0.429166 -0.176231  
     length 3.44967  
     axis 0 0 0   XYZ
    dof ry rz
    limits (-20.0 10.0)
           (0.0 20.0)
  end
  begin
     id 18 
     name lhumerus
     direction 1 -4.48973e-011 -1.90255e-027   
     length 5.20607   
     axis 180 -30 -90   XYZ
    dof rx ry rz
    limits (-60.0 90.0)
           (-90.0 90.0)
           (-90.0 90.0)
  end
  begin
     id 19
     name lradius
     direction 1 -4.48956e-011 9.87925e-027   
     length 3.39961   
     axis 180 -30 -90   XYZ
    dof rx
    limits (-10.0 170.0)
  end
  begin
     id 20
     name lwrist
     direction 1 -4.48985e-011 1.73247e-026   
     length 1.6998   
     axis -9.60847e-015 90 90   XYZ
    dof ry
    limits (-180.0 0.0)
 end
  begin
     id 21 
     name lhand
     direction 1 -4.48798e-011 3.46119e-026   
     length 0.519693   
     axis -2.21073e-014 90 90   XYZ
    dof rx rz
    limits (-90.0 90.0)
           (-45.0 45.0)
  end
  begin
     id 22 
     name lfingers
     direction 1 -4.48938e-011 6.92797e-026   
     length 0.41899   
     axis -4.42155e-014 90 90   XYZ
    dof rx
    limits (0.0 90.0)
  end
  begin
     id 23
     name lthumb
     direction 0.707107 -6.34952e-011 0.707107   
     length 0.601588   
     axis -90 45 6.0103e-014   XYZ
    dof rx rz
    limits (-45.0 45.0)
           (-45.0 45.0)
  end
  begin
     id 24 
     name rclavicle
     direction -0.866736 0.456792 -0.200276   
     length 3.45032  
     axis 0 0 0   XYZ 
    dof ry rz
    limits (-10.0 20.0)
           (-20.0 0.0)
  end
  begin
     id 25 
     name rhumerus
     direction -1 -4.4897e-011 8.65094e-028  
     length 5.32214   
     axis 180 30 90   XYZ
    dof rx ry rz
    limits (-90.0 60.0)
           (-90.0 90.0)
           (-90.0 90.0)
  end
  begin
     id 26 
     name rradius
     direction -1 -4.48987e-011 1.08427e-026   
     length 3.51208   
     axis 180 30 90   XYZ
    dof rx
    limits (-10.0 170.0)
  end
  begin
     id 27 
     name rwrist
     direction -1 -4.48961e-011 1.73222e-026   
     length 1.75604   
     axis -9.60847e-015 -90 -90   XYZ
    dof ry
    limits (-180.0 0.0)
  end
  begin
     id 28
     name rhand
     direction -1 -4.48895e-011 3.46314e-026   
     length 0.586681   
     axis -2.21073e-014 -90 -90   XYZ
    dof rx rz
    limits (-90.0 90.0)
           (-45.0 45.0)
  end
  begin
     id 29
     name rfingers
     direction -1 -4.48968e-011 6.92916e-026   
     length 0.472997   
     axis -4.42155e-014 -90 -90   XYZ
    dof rx
    limits (0.0 90.0)
  end
  begin
     id 30
     name rthumb
     direction -0.707107 -6.34848e-011 0.707107   
     length 0.679133   
     axis -90 -45 -6.0103e-014   XYZ
    dof rx rz
    limits (-45.0 45.0)
           (-45.0 45.0)
  end
:hierarchy
  begin
    root lhipjoint rhipjoint lowerback
    lhipjoint lfemur
    lfemur ltibia
    ltibia lfoot
    lfoot ltoes
    rhipjoint rfemur
    rfemur rtibia
    rtibia rfoot
    rfoot rtoes
    lowerback upperback
    upperback thorax
    thorax lowerneck lclavicle rclavicle
    lowerneck upperneck
    upperneck head
    lclavicle lhumerus
    lhumerus lradius
    lradius lwrist
    lwrist lhand lthumb
    lhand lfingers
    rclavicle rhumerus
    rhumerus rradius
    rradius rwrist
    rwrist rhand rthumb
    rhand rfingers
  end

#!OML:ASF H:\Dans Jumps\Project 1\Capture day 1\Session 1\subject.ASF
:FULLY-SPECIFIED
:DEGREES
38
root 0.114067 17.5552 -13.3945 7.15102 0.157777 -1.49293
lowerback -3.65476 -0.81586 0.231429
upperback 2.58674 -1.18175 1.7885
thorax 4.7566 -0.610961 1.62866
lowerneck -12.8137 0.611044 -1.91495
upperneck 32.8284 1.06233 1.00715
head 13.0973 0.35667 0.884044
rclavicle -1.98785e-015 -2.38542e-015
rhumerus -27.0609 -30.5145 -72.7667
rradius 25.8993
rwrist 32.9311
rhand -18.4753 -26.234
rfingers 7.12502
rthumb 7.8116 -56.0697
lclavicle -1.98785e-015 -2.38542e-015
lhumerus -21.0558 5.65505 85.5435
lradius 20.3559
lwrist 0.421221
lhand -24.2967 -2.24673
lfingers 7.12502
lthumb 2.19083 27.7218
rfemur -11.8949 -3.82384 21.0292
rtibia 20.7905
rfoot -14.9581 -2.84277
rtoes 11.0153
lfemur -11.8816 7.22912 -18.9518
ltibia 19.3616
lfoot -11.5658 7.24539
ltoes -2.74698
39
root 0.11537 17.5566 -13.4014 7.1752 0.176955 -1.48529
lowerback -3.62939 -0.818309 0.219071
upperback 2.59721 -1.1839 1.78256
thorax 4.75325 -0.612365 1.62955
lowerneck -12.8163 0.605264 -1.92193
upperneck 32.8448 1.05178 1.01953
head 13.1048 0.352656 0.88875
rclavicle 8.54774e-015 1.03368e-014
rhumerus -27.028 -30.4555 -72.8364
rradius 25.9189
rwrist 32.8995
rhand -18.455 -26.2242
rfingers 7.12502
rthumb 7.83115 -56.0592
lclavicle 8.54774e-015 1.03368e-014
lhumerus -21.0534 5.58924 85.6022
lradius 20.3675
lwrist 0.435297
lhand -24.2744 -2.24772
lfingers 7.12502
lthumb 2.21237 27.7206
rfemur -11.9467 -3.82211 21.0205
rtibia 20.7933
rfoot -14.9321 -2.86143
rtoes 11.0264
lfemur -11.9075 7.24551 -18.9676
ltibia 19.3034
lfoot -11.5499 7.18342
ltoes -2.70092
40
root 0.116573 17.5579 -13.4085 7.20291 0.196347 -1.47859
lowerback -3.60525 -0.820689 0.208184
upperback 2.60676 -1.186 1.77567
thorax 4.7496 -0.613677 1.62863
lowerneck -12.821 0.59987 -1.92808
upperneck 32.8572 1.04086 1.03414
head 13.1112 0.348905 0.894099
rclavicle 1.13307e-014 -2.38542e-015
rhumerus -26.9917 -30.3912 -72.9131
rradius 25.9413
rwrist 32.8581
rhand -18.4198 -26.2028
rfingers 7.12502
rthumb 7.8652 -56.0365
lclavicle 1.13307e-014 -2.38542e-015
lhumerus -21.0486 5.51075 85.6621
lradius 20.383
lwrist 0.467442
lhand -24.2402 -2.23048
lfingers 7.12502
lthumb 2.24534 27.7375
rfemur -12.0017 -3.8184 21.0137
rtibia 20.7937
rfoot -14.9048 -2.88204
rtoes 11.0405
lfemur -11.9416 7.26193 -18.9827
ltibia 19.2506
lfoot -11.5322 7.12251
ltoes -2.66225
41
root 0.117674 17.5593 -13.4156 7.23316 0.215186 -1.47512
lowerback -3.58295 -0.823168 0.20038
upperback 2.61654 -1.18848 1.76953
thorax 4.74719 -0.615088 1.62671
lowerneck -12.8298 0.596198 -1.93408
upperneck 32.8669 1.03239 1.0491
head 13.1172 0.346316 0.899922
rclavicle -2.48481e-015 9.93923e-015
rhumerus -26.9553 -30.2936 -73.0033
rradius 25.9823
rwrist 32.7872
rhand -18.3693 -26.1875
rfingers 7.12502
rthumb 7.91394 -56.0194
lclavicle -2.48481e-015 9.93923e-015
lhumerus -21.041 5.42525 85.7237
lradius 20.4011
lwrist 0.513932
lhand -24.2001 -2.19921
lfingers 7.12502
lthumb 2.28408 27.7683
rfemur -12.0591 -3.8103 21.0112
rtibia 20.7916
rfoot -14.8754 -2.90751
rtoes 11.0435
lfemur -11.9821 7.27753 -18.9942
ltibia 19.2027
lfoot -11.5129 7.06406
ltoes -2.63026
42
root 0.118713 17.5606 -13.4228 7.26483 0.229199 -1.47212
lowerback -3.56131 -0.824715 0.193191
upperback 2.62605 -1.18974 1.7632
thorax 4.74482 -0.615874 1.62433
lowerneck -12.8421 0.593822 -1.93901
upperneck 32.8748 1.02631 1.06196
head 13.1232 0.344642 0.905095
rclavicle 9.69075e-015 -9.54166e-015
rhumerus -26.9187 -30.1754 -73.1007
rradius 26.0289
rwrist 32.6997
rhand -18.3271 -26.14
rfingers 7.12502
rthumb 7.95463 -55.9703
lclavicle 9.69075e-015 -9.54166e-015
lhumerus -21.0321 5.34307 85.7849
lradius 20.4155
lwrist 0.545221
lhand -24.1813 -2.2022
lfingers 7.12502
lthumb 2.30226 27.7651
rfemur -12.118 -3.79784 21.009
rtibia 20.7874
rfoot -14.8444 -2.93139
rtoes 11.0482
lfemur -12.0259 7.29447 -19.0056
ltibia 19.1586
lfoot -11.4934 7.00887
ltoes -2.60106
